<?xml version="1.0" standalone="no"?><!DOCTYPE svg PUBLIC "-//W3C//DTD SVG 1.1//EN" "http://www.w3.org/Graphics/SVG/1.1/DTD/svg11.dtd"><svg t="1559792923722" class="icon" style="" viewBox="0 0 1024 1024" version="1.1" xmlns="http://www.w3.org/2000/svg" p-id="3470" xmlns:xlink="http://www.w3.org/1999/xlink" width="200" height="200"><defs><style type="text/css"></style></defs><path d="M869.333333 330.154667a360.874667 360.874667 0 0 0-592.554666-9.216V272.810667a20.138667 20.138667 0 0 0-40.32 0v118.784c0 3.626667 1.194667 6.826667 2.858666 9.770666a20.053333 20.053333 0 0 0 10.026667 10.325334c10.282667 4.437333 22.058667 0 26.624-10.197334a321.109333 321.109333 0 0 1 293.546667-190.506666 321.109333 321.109333 0 0 1 321.152 321.152c0 177.109333-144.085333 321.194667-321.152 321.194666a320.597333 320.597333 0 0 1-316.16-264.490666 20.138667 20.138667 0 1 0-39.68 7.082666 360.874667 360.874667 0 0 0 355.84 297.728c199.338667 0 361.472-162.176 361.472-361.514666 0-72.362667-21.333333-142.208-61.653334-201.984" p-id="3471"></path></svg>