<?xml version="1.0" standalone="no"?><!DOCTYPE svg PUBLIC "-//W3C//DTD SVG 1.1//EN" "http://www.w3.org/Graphics/SVG/1.1/DTD/svg11.dtd"><svg t="1559792929046" class="icon" style="" viewBox="0 0 1024 1024" version="1.1" xmlns="http://www.w3.org/2000/svg" p-id="3588" xmlns:xlink="http://www.w3.org/1999/xlink" width="200" height="200"><defs><style type="text/css"></style></defs><path d="M871.722667 572.544a20.053333 20.053333 0 0 0-23.381334 16.298667A320.597333 320.597333 0 0 1 532.138667 853.333333c-177.109333 0-321.194667-144.085333-321.194667-321.194666a321.109333 321.109333 0 0 1 587.52-179.584c10.410667 15.402667 19.584 31.872 27.178667 48.938666 4.522667 10.154667 16.384 14.762667 26.581333 10.154667a19.797333 19.797333 0 0 0 10.069333-10.24 19.84 19.84 0 0 0 2.901334-9.813333V272.810667a20.181333 20.181333 0 0 0-40.32 0v48.170666a360.789333 360.789333 0 0 0-592.554667 9.173334A359.68 359.68 0 0 0 170.666667 532.138667c0 199.338667 162.176 361.472 361.472 361.472a360.874667 360.874667 0 0 0 355.882666-297.685334 20.181333 20.181333 0 0 0-16.298666-23.381333" p-id="3589"></path></svg>