<?xml version="1.0" standalone="no"?><!DOCTYPE svg PUBLIC "-//W3C//DTD SVG 1.1//EN" "http://www.w3.org/Graphics/SVG/1.1/DTD/svg11.dtd"><svg t="1556879021904" class="icon" style="" viewBox="0 0 1024 1024" version="1.1" xmlns="http://www.w3.org/2000/svg" p-id="4796" xmlns:xlink="http://www.w3.org/1999/xlink" width="200" height="200"><defs><style type="text/css"></style></defs><path d="M956.9 67.6h-240v240h92.5c1.6 22.6 3.6 68.3-0.8 116.7C803.3 483 787.5 558 742.4 582c-45.5 24.2-121.1-6.6-218.7-89-57.5-48.5-109.5-80.6-154.3-95.3-43.7-14.3-82.3-13-114.6 4-53.6 28.2-86.2 96.8-96.7 204-4.3 43.5-4 84.2-2.9 111.5H68.3v240h240v-240H205.2c-1.1-25.6-1.5-65 2.6-106.6 6.1-61.5 23.1-140 70.2-164.7 45.3-23.8 119.1 5.7 213.5 85.3 59.4 50.1 112.7 83.3 158.5 98.5 44.5 14.9 83.5 13.6 116-3.6 52.2-27.7 83.3-94.4 92.6-198.1 4.4-49.5 2.7-95.2 1.1-120.4h97.4v-240zM258.3 907.2h-140v-140h140v140z m648.6-649.6h-140v-140h140v140z" fill="" p-id="4797"></path></svg>